<?xml version="1.0" encoding="UTF-8" standalone="yes"?>
<svg version="1.2" width="1500.000000pt" height="1500.000000pt" viewBox="0 0 1500.000000 1500.000000" preserveAspectRatio="xMidYMid meet" baseProfile="tiny-ps" xmlns="http://www.w3.org/2000/svg">
  <title>bimi-svg-tiny-12-ps</title>
  <g transform="translate(0.000000,1500.000000) scale(0.100000,-0.100000)" fill="#000000" stroke="none">
    <path d="M0 7500 l0 -7500 7500 0 7500 0 0 7500 0 7500 -7500 0 -7500 0 0&#xA;-7500z m6418 469 l-3 -1231 103 4 102 3 0 -72 0 -73 -350 0 -350 0 0 55 c0 53&#xA;1 55 28 55 45 1 107 35 130 72 12 19 26 65 32 104 6 43 11 447 12 1081 l3&#xA;1013 -105 -6 c-58 -3 -111 -7 -117 -10 -10 -2 -13 16 -13 70 l0 73 118 6 c125&#xA;7 223 31 277 67 21 14 47 20 83 20 l53 0 -3 -1231z m860 1120 c119 -58 143&#xA;-235 45 -331 -66 -64 -136 -75 -209 -33 -118 69 -132 238 -27 337 55 52 119&#xA;61 191 27z m-2308 -33 c153 -23 324 -84 442 -156 52 -32 70 -37 64 -17 -3 6&#xA;-7 47 -10 90 l-6 78 93 -3 92 -3 0 -400 0 -400 -60 0 -59 0 -16 80 c-65 319&#xA;-239 515 -518 581 -90 22 -274 21 -367 -1 -368 -88 -625 -418 -686 -882 -16&#xA;-127 -6 -391 20 -503 88 -385 335 -666 668 -762 67 -20 100 -23 228 -22 129 1&#xA;164 5 249 28 187 50 353 149 472 280 73 81 70 80 128 32 l30 -25 -44 -58&#xA;c-153 -202 -352 -331 -629 -405 -109 -29 -127 -31 -301 -32 -170 -1 -194 1&#xA;-295 27 -144 36 -321 123 -433 213 -204 163 -337 379 -408 659 -35 139 -44&#xA;382 -19 540 79 507 362 874 783 1015 169 56 393 74 582 46z m4025 -691 c214&#xA;-45 341 -187 398 -441 21 -95 22 -119 22 -642 l0 -544 103 4 102 3 0 -72 0&#xA;-73 -350 0 -350 0 0 55 c0 54 1 55 28 55 15 0 48 10 72 23 35 17 51 34 70 72&#xA;l25 50 0 475 c0 424 -2 483 -18 545 -56 217 -154 314 -331 323 -45 2 -108 -1&#xA;-139 -8 -87 -18 -210 -84 -278 -149 l-59 -56 -2 -623 -3 -623 103 3 102 3 0&#xA;-72 0 -73 -350 0 -350 0 0 55 c0 54 1 55 28 55 42 0 114 41 135 77 30 52 37&#xA;179 38 688 0 264 4 520 8 569 l6 88 -120 -3 -120 -4 -3 71 -3 71 123 6 c130 6&#xA;186 20 250 62 27 18 51 25 87 25 46 0 49 -1 55 -31 3 -17 6 -62 6 -100 0 -38&#xA;3 -69 7 -69 3 0 30 18 59 40 196 148 438 209 649 165z m1910 -10 c120 -33 204&#xA;-82 291 -169 125 -126 188 -274 201 -472 l6 -92 -229 -6 c-126 -3 -399 -9&#xA;-608 -12 l-379 -6 7 -112 c13 -206 44 -342 106 -472 92 -192 240 -284 454&#xA;-284 191 0 378 77 524 215 l67 63 40 -33 39 -33 -28 -41 c-45 -65 -167 -175&#xA;-242 -219 -164 -94 -340 -138 -519 -129 -220 11 -391 83 -531 222 -172 170&#xA;-250 357 -261 627 -7 164 5 254 53 387 51 144 107 233 209 337 132 134 278&#xA;211 459 244 73 13 270 4 341 -15z m-3547 -787 c-2 -436 -8 -801 -12 -811 -8&#xA;-17 -1 -18 100 -16 l109 2 3 -72 3 -71 -353 2 -353 3 -3 48 c-3 51 -3 51 61&#xA;62 50 8 102 55 123 113 18 49 17 25 27 1041 l2 264 -117 -6 -118 -6 0 74 0 75&#xA;83 0 c123 0 204 16 277 54 48 25 79 34 118 35 l54 1 -4 -792z"/>
    <path d="M10560 8226 c-113 -33 -202 -101 -265 -206 -33 -55 -80 -187 -87&#xA;-245 l-3 -30 438 -3 437 -2 0 32 c-1 71 -30 193 -63 262 -43 90 -81 134 -149&#xA;171 -48 27 -63 30 -158 32 -64 1 -123 -3 -150 -11z"/>
  </g>
</svg>